<?xml version="1.0" encoding="UTF-8" standalone="no"?>
<!-- Created with Inkscape (http://www.inkscape.org/) -->

<svg
   width="210.63914mm"
   height="47.84679mm"
   viewBox="0 0 210.63915 47.84679"
   version="1.1"
   id="svg64662"
   inkscape:version="1.1.2 (0a00cf5339, 2022-02-04)"
   sodipodi:docname="di-osvise.svg"
   xmlns:inkscape="http://www.inkscape.org/namespaces/inkscape"
   xmlns:sodipodi="http://sodipodi.sourceforge.net/DTD/sodipodi-0.dtd"
   xmlns="http://www.w3.org/2000/svg"
   xmlns:svg="http://www.w3.org/2000/svg">
  <sodipodi:namedview
     id="namedview64664"
     pagecolor="#ffffff"
     bordercolor="#000000"
     borderopacity="0.25"
     inkscape:pageshadow="2"
     inkscape:pageopacity="0.0"
     inkscape:pagecheckerboard="0"
     inkscape:document-units="mm"
     showgrid="false"
     inkscape:zoom="1.3884885"
     inkscape:cx="523.23084"
     inkscape:cy="471.01578"
     inkscape:window-width="3840"
     inkscape:window-height="2136"
     inkscape:window-x="3840"
     inkscape:window-y="0"
     inkscape:window-maximized="1"
     inkscape:current-layer="layer1"
     fit-margin-top="5"
     fit-margin-left="5"
     fit-margin-right="5"
     fit-margin-bottom="5"
     lock-margins="true" />
  <defs
     id="defs64659" />
  <g
     inkscape:label="Layer 1"
     inkscape:groupmode="layer"
     id="layer1"
     transform="translate(74.178943,-54.56588)"
     style="display:inline">
    <g
       id="g177382"
       transform="matrix(2.5231194,0,0,2.5231194,-201.17187,-131.86967)"
       style="display:inline;stroke:none;stroke-width:1.58534;stroke-miterlimit:4;stroke-dasharray:none;stroke-opacity:1"
       inkscape:label="g177382">
      <g
         id="g177593"
         transform="matrix(0.64695593,0,0,0.64695593,39.985129,50.808116)"
         style="display:inline;stroke:none;stroke-width:2.45046;stroke-miterlimit:4;stroke-dasharray:none;stroke-opacity:1">
        <g
           aria-label="DI-OS "
           id="text66274"
           style="font-weight:900;font-size:25.4px;font-family:Roboto;-inkscape-font-specification:'Roboto Heavy';text-align:center;text-anchor:middle;fill:#ffffff;stroke:none;stroke-width:2.45046;stroke-miterlimit:4;stroke-dasharray:none;stroke-opacity:1">
          <path
             d="m 21.519596,61.180111 q -1.0922,0 -1.778,-0.6604 -0.6858,-0.6604 -0.6858,-1.7272 v -15.3924 h 8.4836 q 2.032,0 3.556,0.762 1.5494,0.762 2.3876,2.159 0.8636,1.397 0.8636,3.2258 v 4.9784 q 0,3.2766 -1.7018,4.9784 -1.7018,1.6764 -5.0038,1.6764 z m 6.0198,-3.0988 q 1.6256,0 2.4638,-0.9398 0.8382,-0.9398 0.8382,-2.7686 v -4.6736 q 0,-1.4478 -0.9398,-2.3114 -0.9398,-0.889 -2.4638,-0.889 h -4.8768 v 11.5824 z"
             style="font-weight:bold;font-family:'Bai Jamjuree';-inkscape-font-specification:'Bai Jamjuree Bold';fill:#011e41;stroke:none;stroke-width:2.45046;stroke-miterlimit:4;stroke-dasharray:none;stroke-opacity:1"
             id="path177488" />
          <path
             d="m 37.140588,43.400111 h 3.5052 v 17.78 h -3.5052 z"
             style="font-weight:bold;font-family:'Bai Jamjuree';-inkscape-font-specification:'Bai Jamjuree Bold';fill:#011e41;stroke:none;stroke-width:2.45046;stroke-miterlimit:4;stroke-dasharray:none;stroke-opacity:1"
             id="path177490" />
          <path
             d="m 43.439776,53.153711 h 8.3566 v 2.9972 h -8.3566 z"
             style="font-weight:bold;font-family:'Bai Jamjuree';-inkscape-font-specification:'Bai Jamjuree Bold';fill:#011e41;stroke:none;stroke-width:2.45046;stroke-miterlimit:4;stroke-dasharray:none;stroke-opacity:1"
             id="path177492" />
          <path
             d="m 60.610144,61.383311 q -2.0066,0 -3.556,-0.8382 -1.524,-0.8636 -2.3876,-2.3876 -0.8382,-1.5494 -0.8382,-3.5814 v -4.572 q 0,-2.032 0.8382,-3.556 0.8636,-1.5494 2.3876,-2.3876 1.5494,-0.8636 3.556,-0.8636 h 2.6924 q 2.0066,0 3.5306,0.8636 1.5494,0.8382 2.3876,2.3876 0.8636,1.524 0.8636,3.556 v 4.572 q 0,2.032 -0.8636,3.5814 -0.8382,1.524 -2.3876,2.3876 -1.524,0.8382 -3.5306,0.8382 z m 2.6924,-3.0988 q 1.4732,0 2.3622,-1.0668 0.9144,-1.0668 0.9144,-2.794 v -4.2672 q 0,-1.7272 -0.9144,-2.794 -0.889,-1.0668 -2.3622,-1.0668 h -2.6924 q -1.4732,0 -2.3876,1.0668 -0.889,1.0668 -0.889,2.794 v 4.2672 q 0,1.7272 0.889,2.794 0.9144,1.0668 2.3876,1.0668 z"
             style="font-weight:bold;font-family:'Bai Jamjuree';-inkscape-font-specification:'Bai Jamjuree Bold';fill:#011e41;stroke:none;stroke-width:2.45046;stroke-miterlimit:4;stroke-dasharray:none;stroke-opacity:1"
             id="path177494" />
          <path
             d="m 78.05992,61.383311 q -2.794,0 -4.3688,-1.5494 -1.5748,-1.5748 -1.5748,-4.3688 h 3.4544 q 0,1.3208 0.6604,2.0828 0.6858,0.7366 1.8796,0.7366 h 2.8194 q 1.1176,0 1.8034,-0.4572 0.7112,-0.4826 0.7112,-1.27 v -0.8636 q 0,-1.2446 -1.8288,-1.5494 l -4.6736,-0.7874 q -2.286,-0.381 -3.4798,-1.4478 -1.1684,-1.0922 -1.1684,-2.7686 v -1.4224 q 0,-1.3462 0.7112,-2.3622 0.7366,-1.0414 2.0574,-1.6002 1.3462,-0.5588 3.0988,-0.5588 h 2.8702 q 1.651,0 2.921,0.6858 1.27,0.6858 1.9558,1.9304 0.7112,1.2192 0.7112,2.8448 h -3.4544 q 0,-1.0668 -0.5842,-1.7018 -0.5842,-0.6604 -1.5494,-0.6604 h -2.8702 q -1.0668,0 -1.7272,0.4572 -0.635,0.4572 -0.635,1.2192 v 0.6858 q 0,1.27 1.7526,1.5748 l 4.6482,0.8128 q 2.3114,0.4064 3.5306,1.4478 1.2192,1.016 1.2192,2.6416 v 1.6764 q 0,1.3462 -0.762,2.3876 -0.7366,1.0414 -2.0828,1.6256 -1.3462,0.5588 -3.1242,0.5588 z"
             style="font-weight:bold;font-family:'Bai Jamjuree';-inkscape-font-specification:'Bai Jamjuree Bold';fill:#011e41;stroke:none;stroke-width:2.45046;stroke-miterlimit:4;stroke-dasharray:none;stroke-opacity:1"
             id="path177496" />
        </g>
        <g
           aria-label="ISE"
           id="text66274-0"
           style="font-weight:900;font-size:25.4px;font-family:Roboto;-inkscape-font-specification:'Roboto Heavy';text-align:center;text-anchor:middle;fill:#011e41;stroke:none;stroke-width:2.45046;stroke-miterlimit:4;stroke-dasharray:none;stroke-opacity:1">
          <path
             d="m 104.83556,43.400111 h 3.5052 v 17.78 h -3.5052 z"
             style="font-weight:bold;font-family:'Bai Jamjuree';-inkscape-font-specification:'Bai Jamjuree Bold';stroke:none;stroke-width:2.45046;stroke-miterlimit:4;stroke-dasharray:none;stroke-opacity:1"
             id="path177556" />
          <path
             d="m 117.07835,61.383311 q -2.794,0 -4.3688,-1.5494 -1.5748,-1.5748 -1.5748,-4.3688 h 3.4544 q 0,1.3208 0.6604,2.0828 0.6858,0.7366 1.8796,0.7366 h 2.8194 q 1.1176,0 1.8034,-0.4572 0.7112,-0.4826 0.7112,-1.27 v -0.8636 q 0,-1.2446 -1.8288,-1.5494 l -4.6736,-0.7874 q -2.286,-0.381 -3.4798,-1.4478 -1.1684,-1.0922 -1.1684,-2.7686 v -1.4224 q 0,-1.3462 0.7112,-2.3622 0.7366,-1.0414 2.0574,-1.6002 1.3462,-0.5588 3.0988,-0.5588 h 2.8702 q 1.651,0 2.921,0.6858 1.27,0.6858 1.9558,1.9304 0.7112,1.2192 0.7112,2.8448 h -3.4544 q 0,-1.0668 -0.5842,-1.7018 -0.5842,-0.6604 -1.5494,-0.6604 h -2.8702 q -1.0668,0 -1.7272,0.4572 -0.635,0.4572 -0.635,1.2192 v 0.6858 q 0,1.27 1.7526,1.5748 l 4.6482,0.8128 q 2.3114,0.4064 3.5306,1.4478 1.2192,1.016 1.2192,2.6416 v 1.6764 q 0,1.3462 -0.762,2.3876 -0.7366,1.0414 -2.0828,1.6256 -1.3462,0.5588 -3.1242,0.5588 z"
             style="font-weight:bold;font-family:'Bai Jamjuree';-inkscape-font-specification:'Bai Jamjuree Bold';stroke:none;stroke-width:2.45046;stroke-miterlimit:4;stroke-dasharray:none;stroke-opacity:1"
             id="path177558" />
          <path
             d="m 130.87051,61.180111 q -1.0922,0 -1.778,-0.6604 -0.6858,-0.6604 -0.6858,-1.7272 v -15.3924 h 13.5636 v 3.048 h -10.0584 v 4.1148 h 9.2964 v 3.048 h -9.2964 v 4.5212 h 10.0584 v 3.048 z"
             style="font-weight:bold;font-family:'Bai Jamjuree';-inkscape-font-specification:'Bai Jamjuree Bold';stroke:none;stroke-width:2.45046;stroke-miterlimit:4;stroke-dasharray:none;stroke-opacity:1"
             id="path177560" />
        </g>
        <g
           aria-label="✔"
           id="text151341"
           style="font-weight:bold;font-size:42.6247px;font-family:'Bai Jamjuree';-inkscape-font-specification:'Bai Jamjuree Bold';text-align:center;text-anchor:middle;fill:#ffc72c;stroke:none;stroke-width:2.45046;stroke-miterlimit:4;stroke-dasharray:none;stroke-opacity:1">
          <path
             d="m 92.666106,49.106928 q 0.811701,0 1.227957,1.332022 0.832514,2.518354 1.186332,2.497541 0.270567,0 0.561947,-0.416257 5.848408,-8.595703 10.822678,-12.23795 2.1021,-1.540151 4.10013,-1.540151 2.64323,0 3.18436,0.166503 0.22895,0.06244 0.22895,0.520321 0,0.374631 -0.4787,0.936578 -13.38266,15.359877 -15.942637,19.980328 -0.874139,1.581775 -4.037691,1.581775 -1.040642,0 -2.185348,-0.541133 -0.478695,-0.249754 -1.665027,-3.184365 -1.498525,-3.704686 -1.498525,-6.493606 0,-1.01983 1.456899,-1.685841 2.039658,-0.936577 3.038675,-0.915765 z"
             id="path177535"
             style="stroke:none;stroke-width:2.45046;stroke-miterlimit:4;stroke-dasharray:none;stroke-opacity:1" />
        </g>
      </g>
    </g>
  </g>
</svg>
